<svg xmlns="http://www.w3.org/2000/svg" version="1.1" fill="#f5f5f5" viewBox="0.5 1 47.01 47.01">
<title>snow</title>
<path d="M14.5 24.502c0 1 0.16 1.97 0.44 2.871l-4.080 2.35-7.26-1.94c-1.31-0.35-2.66 0.43-3.020 1.729-0.35 1.311 0.43 2.65 1.75 3l5.87 1.57-1.58 5.84c-0.35 1.301 0.43 2.65 1.74 3 1.32 0.35 2.67-0.43 3.020-1.738l1.94-7.221 4.27-2.451c1.11 1.010 2.46 1.771 3.95 2.172v5.5l-5.32 4.488c-0.96 0.99-0.96 2.59 0 3.59 0.96 0.99 2.52 0.99 3.48 0l4.3-4.439 4.3 4.439c0.96 0.99 2.52 0.99 3.479 0 0.961-1 0.961-2.6 0-3.59l-5.319-4.488v-5.5c1.49-0.4 2.84-1.162 3.95-2.172l4.27 2.451 1.94 7.221c0.35 1.309 1.699 2.088 3.020 1.738 1.311-0.35 2.091-1.699 1.74-3l-1.58-5.84 5.87-1.57c1.32-0.35 2.1-1.689 1.75-3-0.359-1.299-1.71-2.078-3.020-1.729l-7.261 1.939-4.079-2.35c0.279-0.9 0.439-1.871 0.439-2.871s-0.16-1.97-0.439-2.88l4.079-2.34 7.261 1.94c1.31 0.35 2.66-0.431 3.020-1.73 0.35-1.31-0.43-2.65-1.75-3l-5.87-1.57 1.58-5.84c0.351-1.3-0.43-2.649-1.74-3-1.32-0.35-2.67 0.43-3.020 1.74l-1.94 7.22-4.27 2.45c-1.11-1.010-2.46-1.77-3.95-2.17v-4.5l5.319-5.49c0.961-0.99 0.961-2.59 0-3.59-0.96-0.99-2.52-0.99-3.479 0l-4.3 4.442-4.3-4.44c-0.96-0.99-2.52-0.99-3.48 0-0.96 1-0.96 2.6 0 3.59l5.32 5.49v4.5c-1.49 0.4-2.84 1.16-3.95 2.17l-4.27-2.45-1.94-7.22c-0.35-1.311-1.7-2.090-3.020-1.74-1.31 0.351-2.090 1.7-1.74 3l1.58 5.84-5.87 1.57c-1.32 0.35-2.1 1.69-1.75 3 0.36 1.3 1.71 2.080 3.020 1.73l7.26-1.94 4.080 2.34c-0.28 0.91-0.44 1.879-0.44 2.879zM24 29.002c-2.49 0-4.5-2.010-4.5-4.5s2.010-4.5 4.5-4.5 4.5 2.010 4.5 4.5c0 2.49-2.010 4.5-4.5 4.5z"/>
</svg>