<svg xmlns="http://www.w3.org/2000/svg" fill="#f5f5f5" id="Capa_1" enable-background="new 0 0 512.002 512.002" viewBox="41.12 0 429.76 512"><g><path d="m249.63 327.699v-243.448c0-19.162-15.589-34.751-34.751-34.751s-34.751 15.589-34.751 34.751v243.448c-22.755 12.568-37.127 36.593-37.127 62.92 0 39.634 32.244 71.878 71.878 71.878s71.878-32.244 71.878-71.878c0-26.327-14.372-50.352-37.127-62.92zm-34.751-258.199c8.134 0 14.751 6.617 14.751 14.751v114.422h-29.502v-114.422c0-8.134 6.617-14.751 14.751-14.751zm0 372.997c-28.605 0-51.878-23.272-51.878-51.878 0-20.621 12.22-39.286 31.132-47.552 3.642-1.592 5.995-5.189 5.995-9.163v-115.231h29.502v115.231c0 3.974 2.354 7.571 5.995 9.163 18.912 8.266 31.132 26.931 31.132 47.552 0 28.606-23.273 51.878-51.878 51.878z"></path><path d="m51.123 156.795h49.502c5.522 0 10-4.477 10-10s-4.478-10-10-10h-49.502c-5.522 0-10 4.477-10 10s4.477 10 10 10z"></path><path d="m75.874 94.917h24.751c5.522 0 10-4.477 10-10s-4.478-10-10-10h-24.751c-5.522 0-10 4.477-10 10s4.477 10 10 10z"></path><path d="m110.625 270.551c0-5.523-4.478-10-10-10h-49.502c-5.522 0-10 4.477-10 10s4.478 10 10 10h49.502c5.522 0 10-4.477 10-10z"></path><path d="m100.625 198.673h-24.751c-5.522 0-10 4.477-10 10s4.478 10 10 10h24.751c5.522 0 10-4.477 10-10s-4.478-10-10-10z"></path><path d="m430.503 137.715c-4.568-45.288-42.912-80.755-89.384-80.755-15.329 0-30.298 3.943-43.533 11.275-7.505-38.821-41.727-68.235-82.707-68.235-46.458 0-84.254 37.796-84.254 84.254v219.071c-24.692 23.832-38.153 56.815-37.064 91.206 2.006 63.366 53.192 114.924 116.532 117.377 1.62.063 3.234.094 4.845.094 31.506-.001 61.19-11.946 84.043-33.932 24.04-23.127 37.279-54.184 37.279-87.45 0-9.693-1.179-19.267-3.435-28.539h26.856c17.292 0 31.36-14.073 31.36-31.37 0-14.051-9.295-25.972-22.06-29.943-4.113-25.004-25.879-44.137-52.029-44.137-6.123 0-12.146 1.074-17.818 3.111v-23.112h121.826c27.526 0 49.92-22.394 49.92-49.92-.001-24.258-17.4-44.53-40.377-48.995zm-113.552 138.915c15.279 0 28.144 10.526 31.731 24.707-2.099.786-4.117 1.799-6.02 3.03-4.638 3-5.966 9.19-2.966 13.828 1.913 2.959 5.126 4.57 8.406 4.57 1.86 0 3.742-.518 5.421-1.604 1.807-1.169 3.906-1.79 6.076-1.805.027 0 .054.004.081.004 6.264 0 11.36 5.092 11.36 11.35 0 6.27-5.097 11.37-11.36 11.37h-33.61c-6.311-14.417-15.412-27.622-26.937-38.754v-21.422c5.271-3.424 11.46-5.274 17.818-5.274zm104.008-60h-121.826v-29.835c0-5.523-4.477-10-10-10-5.522 0-10 4.477-10 10v120.883c0 2.842 1.209 5.55 3.326 7.447 21.48 19.251 33.801 46.767 33.801 75.494 0 27.777-11.061 53.715-31.145 73.037-20.066 19.304-46.426 29.345-74.249 28.266-52.895-2.048-95.641-45.105-97.315-98.025-.95-29.988 11.351-58.7 33.748-78.773 2.117-1.897 3.326-4.604 3.326-7.447v-223.423c0-35.43 28.824-64.254 64.254-64.254s64.254 28.824 64.254 64.254v22.541c0 5.523 4.478 10 10 10 5.523 0 10-4.477 10-10v-15.785c12.058-9.08 26.795-14.05 41.986-14.05 35.501 0 64.879 26.633 69.256 60.964-5.84 1.262-11.422 3.568-16.493 6.847-4.638 2.999-5.967 9.189-2.968 13.827 1.913 2.96 5.127 4.571 8.407 4.571 1.859 0 3.741-.518 5.42-1.604 4.811-3.111 10.399-4.758 16.161-4.769.019 0 .037.003.056.003 16.498 0 29.92 13.417 29.92 29.91.001 16.499-13.421 29.921-29.919 29.921z"></path><circle cx="289.131" cy="146.795" r="10"></circle></g></svg>